<?xml version="1.0" encoding="UTF-8"?>
<svg width="372px" height="112px" viewBox="0 0 372 112" version="1.1" xmlns="http://www.w3.org/2000/svg" xmlns:xlink="http://www.w3.org/1999/xlink">
    <!-- Generator: Sketch 51.1 (57501) - http://www.bohemiancoding.com/sketch -->
    <title>Main_black_hor</title>
    <desc>Created with Sketch.</desc>
    <defs></defs>
    <g id="Page-1" stroke="none" stroke-width="1" fill="none" fill-rule="evenodd">
        <g id="Main_black_hor" transform="translate(-27.000000, -42.000000)">
            <!-- <path d="M261.85,80.52 L261.85,119.89 L254.72,119.89 L254.72,114.58 C251.88,118.87 245.55,120.47 240.67,120.58 C226.92,120.58 219.5,110.9 219.5,100.06 C219.5,89.44 227.21,79.9 240.5,79.9 C245.37,79.9 251.27,81.07 254.76,85.8 L254.69,80.56 L261.85,80.52 Z M240.38,86.12 C231.8,86.27 226.63,92.31 226.63,100.02 C226.63,107.73 231.94,114.43 240.97,114.21 C247.44,114.07 254.72,109.41 254.72,100.21 C254.72,90.71 247.08,86.05 240.38,86.12 Z" id="Shape" fill="#FFFFFF" fill-rule="nonzero"></path> -->
            <!-- <polygon id="Shape" fill="#FFFFFF" fill-rule="nonzero" points="279.17 119.89 272 119.89 272 69 279.14 69"></polygon> -->
            <!-- <path d="M328.58,101.92 L295.25,101.92 C295.25,109.63 302.6,114.28 308.49,114.28 C313.37,114.28 317.88,112.18 320.21,107.74 L327.56,107.74 C324.56,116.32 316.5,120.62 308.42,120.62 C298.3,120.62 288.11,113.78 288.11,100.24 C288.11,86.7 298.16,79.94 308.56,79.94 C318.31,79.94 327.92,86.12 328.72,98.49 C328.856502,99.6334851 328.809239,100.791443 328.58,101.92 Z M321.23,96.02 C319.84,88.96 314.23,86.2 308.56,86.2 C302.89,86.2 297,89 295.54,96 L321.23,96.02 Z" id="Shape" fill="#FFFFFF" fill-rule="nonzero"></path> -->
            <!-- <path d="M346.18,79.86 L346.18,85.4 C348.87,81.47 352.66,79.86 357.24,79.86 C362.77,79.86 367.72,81.18 370.63,86.71 C373.03,82.34 377.47,79.94 383.22,79.86 C394.06,79.86 398.79,87.51 398.79,97.48 L398.79,119.89 L391.66,119.89 L391.66,97.55 C391.66,92.02 390.28,86.49 383.44,86.49 C376.44,86.49 372.96,91.29 372.96,97.69 L372.96,119.89 L365.83,119.89 L365.83,97.77 C365.83,92.24 363.72,86.49 357.17,86.49 C350.91,86.49 346.17,90.78 346.17,98.49 L346.17,119.89 L339.04,119.89 L339.04,79.89 L346.18,79.86 Z" id="Shape" fill="#FFFFFF" fill-rule="nonzero"></path> -->
            <!-- <circle id="Oval" cx="97.44" cy="97.95" r="97.11"></circle> -->
            <path d="M83.28,42.24 C58.5407569,42.2164118 36.7494462,58.5103656 29.7759427,82.2464343 C22.8024392,105.982503 32.3174402,131.474049 53.1380603,144.835654 C73.9586803,158.197259 101.096759,156.227778 119.77,140 L119.77,55.87 C109.654746,47.064132 96.6912395,42.2219124 83.28,42.24 Z" id="Shape" fill="#FFFFFF" fill-rule="nonzero"></path>
            <path d="M119.77,43.52 L119.77,55.87 C131.97783,66.4422939 138.991971,81.7955569 138.991971,97.945 C138.991971,114.094443 131.97783,129.447706 119.77,140.02 L119.77,151.74 L158.21,151.74 L158.21,43.52 L119.77,43.52 Z" id="Shape" fill="#FFFFFF" fill-rule="nonzero"></path>
            <path d="M139,98 C139.016565,81.8459496 132.000389,66.4848333 119.78,55.92 L119.78,140 C131.978163,129.452616 138.991992,114.125831 139,98 Z" id="Shape"></path>
        </g>
    </g>
</svg>